<?xml version="1.0" standalone="no"?>
<!DOCTYPE svg PUBLIC "-//W3C//DTD SVG 20010904//EN"
 "http://www.w3.org/TR/2001/REC-SVG-20010904/DTD/svg10.dtd">
<svg version="1.0" xmlns="http://www.w3.org/2000/svg"
 width="300.000000pt" height="375.000000pt" viewBox="0 0 300.000000 375.000000"
 preserveAspectRatio="xMidYMid meet">
<metadata>
Created by potrace 1.10, written by Peter Selinger 2001-2011
</metadata>
<g transform="translate(0.000000,375.000000) scale(0.100000,-0.100000)"
fill="#000000" stroke="none">
<path d="M1415 3584 c-346 -38 -655 -182 -655 -307 0 -14 16 -76 36 -139 62
-198 86 -306 79 -357 -3 -25 -1 -60 4 -77 l9 -32 -55 25 c-111 51 -179 40
-210 -35 -20 -49 -10 -107 33 -178 36 -60 34 -72 -11 -75 -17 -1 -17 -2 -2 -6
15 -4 13 -8 -12 -33 -32 -33 -52 -81 -23 -58 14 11 15 10 7 -7 -5 -11 -9 -48
-9 -83 -1 -52 1 -60 11 -45 10 13 13 14 13 2 0 -8 3 -24 6 -37 5 -19 3 -21
-12 -15 -18 6 -18 5 -4 -13 9 -10 22 -36 29 -57 11 -34 11 -41 -5 -58 -9 -10
-14 -19 -10 -19 4 0 -4 -14 -18 -31 -14 -17 -26 -35 -26 -41 0 -6 10 1 21 16
36 45 31 23 -10 -52 -22 -40 -37 -72 -35 -72 7 0 -48 -73 -66 -87 -10 -9 -11
-12 -2 -13 19 0 15 -15 -13 -48 -21 -25 -23 -31 -10 -34 14 -3 12 -10 -9 -52
l-24 -48 29 28 c36 34 38 20 4 -26 -26 -35 -51 -107 -41 -118 3 -3 6 1 6 9 0
17 39 83 46 77 2 -3 -5 -25 -16 -49 -11 -24 -19 -57 -19 -74 0 -27 2 -26 23
21 28 60 50 81 40 37 -3 -15 -13 -39 -21 -52 -14 -22 -14 -24 2 -17 14 5 16 3
9 -11 -4 -10 -9 -36 -11 -58 -2 -30 -1 -35 6 -20 5 12 17 27 26 35 15 13 14 8
-4 -27 -22 -43 -26 -93 -11 -128 7 -16 9 -14 10 15 l1 35 15 -29 c10 -17 14
-40 10 -60 -3 -17 -2 -44 3 -61 l9 -30 2 40 c2 39 2 39 14 -17 6 -32 16 -63
23 -69 9 -9 11 -6 7 12 -5 23 -5 23 10 5 18 -23 21 -59 6 -87 -13 -23 2 -26
20 -3 12 13 15 11 27 -17 7 -17 13 -42 13 -56 0 -13 4 -21 10 -18 6 3 10 21
10 38 0 18 5 39 10 47 7 10 10 -6 10 -55 0 -38 5 -77 10 -85 7 -11 10 -2 10
33 0 30 4 46 10 42 6 -3 10 -25 10 -48 1 -23 7 -53 15 -67 13 -24 14 -21 16
45 l1 70 10 -50 c5 -27 13 -68 17 -90 l7 -40 11 45 11 45 2 -45 c1 -25 5 -54
10 -65 7 -17 9 -14 10 15 1 31 3 28 16 -25 17 -68 44 -109 36 -54 -3 22 -1 30
7 25 6 -4 11 -14 11 -23 0 -20 31 -71 47 -77 10 -4 11 -1 3 14 -17 32 -11 47
10 21 14 -17 20 -38 20 -77 0 -29 4 -56 10 -59 6 -3 10 4 10 18 0 13 11 34 24
46 l25 23 6 -35 c4 -20 4 -40 0 -46 -3 -6 -2 -11 4 -11 6 0 13 17 17 38 l7 37
13 -48 c12 -46 41 -103 50 -95 2 2 -1 21 -7 41 -6 24 -7 43 0 54 8 15 11 12
19 -17 l10 -35 2 30 c1 26 3 27 10 10 5 -11 10 -38 11 -60 2 -40 2 -40 8 10
l6 50 17 -55 c10 -31 29 -67 43 -80 24 -23 37 -16 13 8 -6 6 -8 15 -4 19 4 4
16 -3 26 -17 23 -30 27 -14 4 18 -8 12 -11 22 -6 22 13 0 49 -42 56 -66 4 -12
16 -30 28 -40 21 -19 21 -19 13 1 -4 11 -10 31 -13 45 l-5 25 28 -25 c15 -14
33 -38 40 -54 l12 -28 5 25 c3 14 -1 43 -8 64 -8 21 -14 49 -13 63 0 19 7 11
29 -34 l28 -58 16 31 c9 17 19 31 22 31 8 0 0 -59 -11 -85 -15 -36 24 4 46 46
10 21 29 44 41 50 22 12 22 12 5 -14 -27 -42 -20 -50 14 -15 28 30 30 30 15 6
-23 -39 -20 -45 9 -18 14 13 33 49 43 80 l17 55 6 -50 c5 -44 6 -46 8 -15 2
19 7 46 11 60 8 25 8 25 10 -5 l2 -30 10 34 c7 25 12 31 21 22 8 -8 8 -22 0
-53 -6 -24 -10 -44 -8 -47 8 -8 46 66 51 102 9 49 19 54 21 10 1 -20 7 -41 14
-47 8 -8 10 -5 4 12 -7 24 2 82 14 82 11 0 31 -62 24 -74 -4 -7 -3 -8 4 -1 6
6 18 35 27 66 9 31 23 62 31 69 18 15 21 -1 4 -32 -9 -16 -8 -19 3 -16 7 3 26
29 41 59 l29 54 -6 -39 -5 -39 17 24 c9 13 22 49 28 79 l12 55 2 -40 c2 -35 3
-37 10 -15 4 14 9 43 10 65 l2 40 12 -40 13 -40 7 45 c23 135 23 137 26 105 2
-16 2 -48 1 -70 -2 -38 -2 -39 13 -20 8 11 16 36 16 55 1 19 5 44 10 55 6 15
9 7 9 -30 2 -78 21 -33 21 48 0 43 4 66 10 62 6 -3 10 -21 11 -38 0 -18 4 -41
9 -52 7 -16 9 -13 9 17 1 20 5 40 11 43 5 3 10 15 10 26 0 18 1 19 25 3 14 -9
25 -12 25 -6 0 6 -4 14 -10 17 -15 9 -12 46 6 75 14 24 15 24 11 2 -3 -12 -1
-22 4 -22 9 0 25 53 32 105 3 26 4 24 6 -10 2 -37 3 -38 12 -15 6 14 8 42 4
64 -3 21 -1 43 4 50 5 6 11 20 14 31 2 11 5 2 6 -20 1 -30 4 -36 11 -25 16 25
11 93 -10 135 l-21 40 26 -29 c40 -44 43 -26 10 57 -6 13 -4 16 10 11 16 -7
16 -5 2 17 -8 13 -17 38 -21 54 l-6 30 24 -30 c14 -16 30 -45 35 -65 10 -33
10 -32 6 18 -2 29 -11 62 -20 74 -8 13 -15 26 -15 31 0 16 21 -5 40 -41 10
-20 19 -30 19 -22 1 20 -34 96 -48 104 -6 4 -11 14 -11 23 0 13 5 11 26 -8
l26 -24 -26 50 c-20 40 -22 51 -11 53 12 3 9 11 -10 36 -28 37 -31 46 -12 46
7 0 -6 21 -30 46 -23 26 -40 50 -38 55 3 4 0 11 -6 15 -8 5 -9 3 -4 -6 5 -9 4
-11 -4 -6 -6 4 -9 11 -6 16 3 5 -8 38 -25 72 -30 61 -30 62 -5 35 33 -37 33
-18 -1 22 -14 17 -23 31 -20 31 4 0 0 10 -8 23 -13 19 -13 28 -3 59 7 19 19
44 27 54 14 16 13 17 -4 11 -14 -6 -17 -4 -12 9 3 8 6 25 6 37 1 20 2 20 13 6
11 -14 13 -7 12 45 -1 33 -5 70 -10 81 -8 17 -7 18 7 7 28 -22 10 24 -22 58
-22 24 -25 30 -12 31 10 0 3 5 -14 10 -17 5 -37 16 -44 24 -7 8 -18 15 -26 15
-7 0 -15 4 -18 9 -4 5 4 7 16 3 14 -3 19 -2 14 6 -4 7 -28 12 -54 12 -44 1
-46 2 -28 15 18 13 18 15 3 15 -10 0 -34 -7 -54 -15 -48 -20 -50 -19 -23 10
13 14 18 25 12 25 -6 0 -14 -4 -17 -10 -3 -5 -10 -10 -15 -10 -5 0 4 21 20 47
115 181 87 375 -47 335 -21 -6 -64 -27 -96 -46 -63 -38 -62 -39 -72 39 -4 28
-13 61 -22 73 -20 33 -36 206 -29 327 7 125 -3 198 -34 231 -37 38 -138 64
-265 68 -60 2 -128 2 -150 0z m10 -24 c-3 -5 -2 -10 4 -10 5 0 13 5 16 10 3 6
14 10 23 10 10 0 -2 -13 -28 -30 -25 -16 -40 -30 -35 -30 6 0 30 14 54 30 31
21 56 30 84 30 l41 0 -35 -36 -34 -36 43 22 c37 19 53 22 108 17 76 -7 99 -18
119 -57 26 -50 -8 -103 -104 -165 -83 -53 -107 -61 -129 -43 -15 12 -16 11 -4
-4 12 -15 9 -18 -28 -28 -33 -9 -45 -8 -58 2 -15 11 -15 11 -5 -3 11 -13 3
-18 -60 -33 -40 -9 -118 -22 -175 -29 l-103 -11 33 -18 c18 -9 45 -17 61 -18
15 0 35 -9 45 -21 9 -11 42 -34 72 -51 30 -17 66 -40 79 -50 13 -10 28 -18 34
-18 16 0 -51 48 -105 76 -27 13 -48 29 -48 35 0 5 -4 7 -10 4 -5 -3 -10 1 -10
10 0 20 19 11 108 -52 34 -24 62 -40 62 -34 0 8 -67 56 -136 97 -10 7 -16 15
-12 19 8 8 57 -17 97 -51 18 -15 35 -24 38 -20 7 7 11 4 -52 47 -48 32 -54 34
-135 33 -47 -1 -69 0 -50 3 122 15 233 34 268 46 23 8 42 12 42 9 0 -3 20
-123 45 -265 25 -143 43 -262 40 -265 -13 -13 -23 21 -45 145 -13 73 -26 131
-28 128 -2 -2 6 -65 18 -141 25 -153 27 -147 -50 -163 -123 -26 -120 -26 -121
5 -1 21 -3 24 -6 9 -3 -11 -12 -28 -21 -37 -14 -17 -13 -18 12 -18 101 0 325
71 391 124 19 15 19 16 -15 13 -30 -2 -35 1 -38 21 -2 12 -7 22 -12 22 -5 0 5
29 22 65 17 37 28 68 25 71 -3 3 -13 -11 -22 -30 -30 -62 -35 -56 -61 59 -13
61 -57 200 -66 210 -6 6 -7 5 -4 -5 2 -8 23 -111 47 -228 30 -153 39 -216 31
-224 -8 -8 -12 -1 -17 23 -3 19 -21 124 -41 234 -19 110 -38 214 -41 230 -4
25 -1 33 19 42 12 6 61 30 108 52 154 72 195 138 133 212 -24 29 -25 31 -5 20
41 -22 45 -45 47 -271 1 -118 8 -243 14 -277 13 -69 8 -87 -37 -135 -18 -20
-21 -28 -11 -28 20 0 64 48 75 80 7 22 9 19 15 -25 3 -27 14 -89 25 -137 18
-85 18 -89 0 -119 -18 -30 -18 -31 1 -21 19 10 103 127 103 142 0 4 -9 10 -20
13 -17 4 -20 2 -14 -15 4 -14 2 -18 -5 -14 -6 4 -11 2 -11 -3 0 -6 6 -11 13
-11 6 0 3 -6 -8 -12 -11 -7 -22 -11 -25 -10 -3 0 -10 26 -16 57 l-11 56 58 34
c53 31 98 38 83 13 -3 -5 -13 -4 -22 3 -14 11 -14 10 0 -6 17 -18 18 -18 31
-1 22 31 52 16 55 -27 4 -49 -33 -131 -97 -211 -83 -103 -145 -152 -289 -223
-73 -36 -131 -68 -128 -71 7 -6 116 33 179 65 27 13 56 22 65 20 21 -5 -73
-49 -167 -79 -36 -12 -71 -27 -77 -35 -12 -14 -100 -34 -109 -25 -3 3 -27 5
-53 4 -35 -2 -43 0 -32 7 8 6 29 11 45 11 26 1 28 2 12 11 -28 16 -66 3 -73
-26 -6 -23 -10 -25 -71 -25 -54 0 -67 4 -86 24 -16 16 -49 30 -113 45 -102 24
-114 25 -114 12 0 -10 144 -51 181 -51 13 0 31 -5 39 -11 41 -29 -166 15 -270
57 -77 32 -185 93 -183 103 4 17 -17 13 -23 -4 -10 -24 -26 -17 -18 8 10 33
11 33 57 0 23 -17 67 -43 97 -58 l55 -27 -24 26 c-14 15 -48 41 -75 58 -111
69 -186 158 -186 222 0 38 3 43 34 57 29 13 33 14 29 1 -5 -12 -2 -12 15 -3
16 9 31 6 76 -15 31 -14 57 -28 60 -32 11 -19 17 -122 7 -122 -6 0 -11 7 -11
15 0 8 -7 15 -15 15 -9 0 -12 6 -9 15 5 11 2 13 -10 9 -11 -4 -15 -2 -11 8 4
9 -2 14 -17 15 -18 2 -20 0 -8 -7 8 -5 11 -10 5 -10 -5 0 7 -17 26 -37 20 -21
43 -50 53 -66 26 -43 105 -95 164 -108 68 -16 93 2 30 20 -71 21 -159 73 -169
99 -5 13 -9 44 -9 70 0 26 -7 74 -15 107 -18 76 -18 97 0 64 19 -35 71 -65
144 -84 71 -18 72 -18 65 -2 -2 7 4 22 14 33 11 11 25 31 32 45 12 22 10 22
-19 -5 -17 -17 -31 -25 -31 -18 0 6 4 14 10 17 5 3 15 15 21 26 10 19 9 20
-10 9 -24 -12 -21 -17 -44 68 -10 35 -12 64 -6 89 4 21 6 39 4 41 -6 7 -40
-82 -36 -93 4 -12 40 -177 41 -187 0 -5 -4 -8 -9 -8 -5 0 -17 43 -27 95 -11
60 -21 91 -26 83 -5 -8 -6 -3 -3 13 4 14 -3 79 -15 143 -12 64 -18 126 -15
136 5 17 2 20 -25 20 -25 0 -31 -4 -26 -15 3 -8 17 -77 31 -153 14 -75 30
-144 34 -153 5 -9 5 -23 -1 -32 -5 -9 -5 -17 0 -17 5 0 13 -25 19 -55 5 -30 7
-55 3 -55 -27 0 -41 38 -74 205 -56 278 -55 275 -104 302 l-41 23 15 -42 c20
-55 90 -330 99 -388 14 -89 -13 -25 -33 80 -12 58 -42 173 -67 254 -44 145
-53 200 -37 210 4 2 6 -10 4 -27 -2 -22 3 -41 17 -59 25 -32 117 -68 169 -67
l37 1 -40 19 c-22 10 -55 21 -73 25 -40 8 -82 56 -82 94 0 19 10 39 28 55 33
32 200 115 230 115 13 0 22 6 22 15 0 16 66 38 117 39 20 0 28 3 20 8 -8 5 -3
8 13 9 14 0 34 2 45 5 11 2 42 7 70 10 27 3 52 7 54 10 8 8 12 4 6 -6z m753
-772 c-2 -21 1 -40 7 -42 5 -2 2 -5 -7 -5 -15 -1 -18 8 -18 52 0 29 -3 57 -7
63 -5 5 0 0 10 -10 13 -14 18 -32 15 -58z m-54 -156 c-21 -36 -66 -96 -101
-131 -42 -43 -60 -68 -53 -75 7 -7 26 5 57 34 26 25 35 30 19 13 -36 -40 -26
-56 12 -20 34 32 53 36 26 5 -20 -23 -21 -23 33 -1 10 4 14 3 10 -4 -5 -8 1
-8 22 0 23 8 39 7 77 -8 48 -18 110 -63 128 -94 20 -34 24 -95 9 -131 -8 -19
-18 -53 -23 -75 l-8 -40 -2 40 -2 40 -10 -35 -11 -35 -13 40 -12 40 -1 -35 -1
-35 -25 30 c-28 35 -33 27 -8 -13 17 -27 17 -27 -3 -9 -36 30 -37 18 -2 -23
84 -102 101 -140 42 -95 -30 23 -34 24 -25 7 6 -11 33 -46 60 -78 49 -57 59
-80 24 -53 -10 7 -7 1 6 -14 39 -43 19 -41 -23 3 -21 22 -44 40 -53 40 -8 0
28 -41 79 -91 51 -49 84 -87 73 -83 -15 5 -12 -2 13 -27 17 -19 32 -38 32 -43
0 -9 -60 31 -77 52 -12 14 -13 14 -13 0 0 -9 16 -31 36 -50 35 -33 71 -88 57
-88 -4 0 -18 10 -32 23 l-25 22 24 -40 c40 -70 50 -90 50 -105 0 -10 -7 -7
-20 10 l-19 25 5 -74 c3 -40 9 -84 14 -97 16 -41 -7 -27 -29 19 l-21 42 0 -32
c0 -18 9 -56 20 -84 14 -35 19 -62 14 -83 -7 -30 -7 -30 -25 24 l-18 55 5
-100 c4 -94 3 -98 -10 -65 l-14 35 -1 -33 c-1 -28 -25 -102 -33 -102 -2 0 -1
43 0 96 2 54 0 100 -6 106 -15 15 -46 -127 -47 -219 0 -87 -6 -95 -26 -36
l-12 37 -13 -44 c-7 -25 -16 -65 -20 -90 -6 -35 -9 -41 -15 -25 -4 11 -8 42
-8 68 -1 29 -5 46 -11 42 -5 -3 -10 -29 -10 -56 0 -54 -52 -208 -58 -171 -2
11 4 44 12 73 28 92 17 97 -25 10 -22 -46 -44 -106 -48 -133 -12 -72 -24 -72
-19 0 4 63 4 64 -14 40 -10 -12 -27 -45 -37 -73 -17 -42 -20 -46 -20 -22 -1
35 -13 28 -37 -20 l-18 -38 -6 30 c-5 30 -6 29 -28 -22 -12 -28 -22 -63 -22
-77 0 -14 -5 -28 -10 -31 -13 -8 -13 56 0 90 14 38 -6 22 -30 -23 -17 -33 -19
-34 -20 -13 0 35 -14 16 -35 -49 -16 -48 -78 -150 -92 -150 -3 0 -2 15 2 33 3
17 8 38 9 45 3 18 26 31 42 25 8 -3 14 10 19 39 4 24 18 65 31 91 13 27 24 58
24 68 0 11 5 17 10 14 6 -3 10 -18 10 -32 0 -37 12 -21 37 50 l21 62 1 -50 1
-50 20 25 c11 14 25 43 31 65 19 66 22 73 26 48 3 -12 0 -39 -6 -60 -9 -35 -9
-36 5 -18 8 11 19 38 25 60 6 22 14 47 17 55 10 30 14 -17 3 -54 -5 -20 -7
-36 -5 -36 11 0 54 107 54 133 0 42 20 32 21 -10 l1 -38 15 35 c15 36 14 133
-3 174 -5 14 -4 17 5 12 7 -5 17 -20 22 -34 10 -26 11 -25 34 32 13 32 26 60
29 64 13 12 5 -41 -9 -68 -9 -17 -12 -30 -7 -30 18 0 43 38 49 74 9 58 26 56
22 -3 -3 -43 -2 -49 9 -34 15 21 15 61 1 137 -14 78 -4 104 20 51 l18 -40 22
60 c17 44 22 74 19 112 -4 42 -2 50 8 42 12 -10 36 -73 47 -124 3 -11 5 10 6
46 1 57 -3 72 -32 121 -19 30 -37 62 -40 71 -13 33 9 16 43 -34 39 -58 52 -51
20 11 -30 59 -41 90 -31 90 5 0 16 -17 25 -37 l17 -38 -5 48 c-3 35 -14 63
-39 100 -36 51 -41 71 -12 47 27 -22 16 -1 -21 39 -19 22 -44 57 -55 78 l-20
38 6 -40 c8 -51 40 -123 67 -152 12 -13 17 -23 10 -23 -6 0 -24 17 -41 37 -37
45 -42 31 -6 -18 35 -49 67 -109 57 -109 -4 0 -16 14 -26 31 -21 36 -31 33
-16 -5 19 -51 9 -51 -17 -1 l-25 50 5 -45 5 -45 -15 48 c-8 27 -16 47 -18 45
-12 -12 17 -160 40 -205 15 -29 29 -74 32 -100 l4 -48 -20 35 c-11 19 -20 44
-21 55 -1 42 -19 -9 -26 -73 -8 -82 -23 -62 -25 33 l-1 70 -18 -70 c-10 -38
-22 -87 -25 -107 -9 -57 -28 -48 -21 10 4 26 9 85 13 132 6 81 6 84 19 55 l13
-30 1 30 c0 17 -12 53 -26 80 -22 42 -23 47 -7 33 11 -10 26 -18 34 -18 10 1
10 3 -3 10 -9 6 -26 40 -39 78 -12 37 -33 82 -47 100 -33 43 -17 41 30 -5 21
-20 38 -31 38 -23 0 7 -21 32 -46 54 -25 23 -68 62 -95 89 l-49 47 14 -35 c8
-19 28 -54 44 -77 46 -69 47 -72 24 -59 -12 6 -26 19 -31 29 -6 9 -11 12 -11
5 0 -6 15 -31 34 -56 58 -76 70 -111 23 -70 -19 17 -20 17 -8 -5 7 -12 23 -39
37 -59 13 -20 24 -48 24 -62 -1 -23 -4 -20 -25 21 -39 74 -45 65 -13 -18 26
-67 50 -188 35 -174 -3 3 -17 34 -31 70 -19 48 -25 56 -21 30 13 -84 17 -193
8 -187 -11 7 -10 -54 1 -91 10 -30 0 -28 -19 6 l-16 27 6 -35 c16 -95 18 -123
8 -117 -6 4 -14 22 -17 40 -3 19 -13 42 -20 53 -13 17 -14 12 -14 -46 0 -36
-4 -76 -10 -90 -9 -22 -11 -17 -12 35 l-1 60 -20 -45 c-11 -25 -23 -76 -26
-113 -4 -42 -9 -63 -14 -55 -6 9 -9 4 -9 -14 0 -15 -4 -30 -10 -33 -15 -9 -12
34 5 91 22 72 18 97 -6 44 -11 -24 -24 -76 -28 -115 -8 -70 -8 -70 -10 -17 -2
74 -17 57 -25 -28 -7 -73 -26 -97 -26 -34 0 36 -1 34 -37 -37 -40 -77 -75
-111 -48 -45 8 19 15 50 16 68 0 18 3 27 6 21 6 -17 23 -16 23 1 0 7 9 25 20
38 11 14 24 39 30 54 l10 29 -19 -22 c-28 -34 -31 -28 -9 17 11 22 21 62 21
90 2 43 4 48 15 33 6 -9 12 -29 12 -45 0 -74 44 21 54 117 8 75 25 97 27 34
l2 -44 10 38 c7 26 16 37 30 37 27 0 77 54 77 83 0 13 -9 36 -21 51 -13 16
-22 46 -25 79 -2 28 -7 72 -10 96 -4 28 -2 41 5 37 5 -4 13 -27 17 -51 3 -26
10 -42 16 -39 13 8 3 71 -24 154 -30 93 -38 95 -38 10 -1 -70 -2 -73 -14 -45
-12 28 -12 25 -14 -46 -2 -66 0 -78 19 -95 11 -10 26 -28 31 -38 6 -11 -41 29
-106 89 -64 61 -129 115 -145 122 -16 7 -66 17 -112 23 -56 6 -93 17 -111 30
l-28 21 -27 -21 c-19 -13 -56 -24 -113 -31 -84 -10 -170 -39 -170 -57 0 -5 18
-1 39 10 95 47 373 29 432 -28 41 -39 36 -47 -13 -19 -24 14 -50 25 -58 25 -8
0 16 -17 53 -38 48 -27 76 -51 97 -82 17 -25 30 -40 30 -33 0 6 -4 15 -10 18
-5 3 -10 11 -10 18 0 6 6 2 14 -9 19 -26 14 -80 -8 -102 -17 -16 -18 -16 -2
15 26 52 18 52 -14 1 -36 -58 -48 -63 -20 -8 32 64 22 70 -12 7 -31 -58 -53
-75 -24 -18 9 16 16 38 16 48 0 10 -11 -5 -24 -33 -13 -28 -29 -55 -36 -59 -7
-4 -5 5 4 23 9 17 16 39 16 49 0 10 -11 -6 -25 -36 -14 -30 -28 -51 -31 -48
-3 3 -1 14 5 25 6 12 11 27 11 34 -1 7 -12 -7 -26 -32 l-25 -45 6 35 6 35 -21
-38 c-24 -44 -29 -46 -23 -10 l4 28 -15 -30 -14 -30 -1 39 c-1 22 -4 36 -8 32
-8 -8 -9 -12 -12 -48 -2 -21 -3 -20 -17 7 l-14 30 5 -27 c8 -41 -3 -34 -25 15
-11 23 -20 34 -20 24 0 -10 5 -28 11 -39 8 -16 8 -19 -1 -13 -7 4 -21 26 -31
49 -20 43 -26 36 -9 -10 18 -48 3 -37 -24 17 -28 57 -36 52 -11 -7 22 -53 -4
-28 -31 30 -26 56 -33 47 -9 -11 25 -60 9 -48 -24 18 -34 68 -43 61 -11 -8 10
-24 17 -43 15 -43 -7 0 -49 73 -61 109 -8 22 -13 28 -13 16 0 -11 8 -39 19
-62 10 -24 17 -43 15 -43 -7 0 -48 73 -62 109 l-14 36 6 -34 c13 -81 87 -160
180 -192 56 -19 227 -17 283 4 58 22 98 52 131 97 l27 38 22 -33 c13 -17 34
-43 49 -56 l25 -24 -7 25 c-4 14 -13 28 -19 32 -6 4 -7 8 -3 8 4 0 -4 11 -20
24 l-28 24 35 11 c34 10 33 11 -12 5 l-48 -5 10 27 c12 30 37 53 59 54 7 0 28
-13 47 -29 27 -24 30 -30 16 -34 -11 -3 -8 -5 8 -6 23 -1 68 -38 62 -51 -1 -3
-15 -3 -31 -2 -34 4 -55 -19 -46 -49 5 -15 4 -19 -4 -15 -6 4 -11 4 -10 -1 4
-23 -2 -35 -16 -29 -21 8 -45 -32 -45 -79 -1 -40 -1 -40 -15 -15 -16 28 -21
95 -6 71 7 -11 10 -9 13 10 2 16 9 24 21 23 22 -2 22 9 -1 29 -17 16 -20 15
-43 -9 -43 -46 -65 -50 -27 -4 54 62 37 82 -18 21 -26 -29 -65 -58 -96 -72
-47 -21 -68 -24 -178 -24 -110 0 -131 3 -177 24 -63 28 -122 89 -149 154 -10
26 -25 47 -32 47 -28 0 21 -103 73 -155 20 -19 31 -35 26 -35 -18 0 -74 54
-87 85 -7 16 -13 24 -14 17 0 -28 -20 1 -20 31 0 52 -17 66 -24 21 -18 -116
-18 -121 -2 -152 21 -41 6 -41 -28 -1 -17 20 -26 43 -26 64 0 19 -4 44 -9 58
-5 13 -5 30 -1 38 10 15 15 5 22 -36 2 -11 8 -20 13 -20 12 0 19 90 10 114 -6
14 -8 13 -15 -4 -6 -13 -9 8 -10 60 -1 75 -2 78 -15 55 -13 -23 -14 -20 -15
50 l-2 75 -19 -43 c-28 -61 -50 -169 -39 -195 8 -20 9 -19 10 8 0 17 7 44 15
60 13 28 14 25 9 -45 -3 -41 -10 -97 -16 -123 -13 -59 -6 -69 15 -25 l17 33 0
-28 c0 -15 -7 -44 -15 -64 -20 -47 -19 -53 4 -24 l18 24 7 -29 c3 -16 13 -51
20 -79 l15 -50 0 48 c2 91 30 34 31 -63 1 -19 11 -55 24 -79 l23 -44 6 43 c8
64 24 71 25 11 1 -30 10 -68 23 -94 l22 -42 -22 19 c-32 29 -27 0 9 -53 17
-24 30 -49 31 -55 1 -6 5 0 9 14 7 23 8 22 9 -10 1 -19 8 -52 15 -73 23 -64
-5 -38 -46 44 l-37 74 -1 -40 c0 -57 -18 -26 -26 48 -8 67 -24 77 -20 12 4
-67 -10 -44 -17 27 -3 35 -14 83 -26 108 -24 53 -27 35 -5 -39 8 -29 13 -64
11 -79 -4 -26 -4 -26 -12 6 -5 20 -11 29 -15 22 -4 -6 -10 19 -12 57 -3 38
-15 88 -27 113 l-21 45 3 -58 c2 -60 -7 -76 -17 -30 -9 41 -10 94 -2 130 4 18
5 33 3 33 -9 0 -47 -90 -47 -110 0 -11 -5 -20 -11 -20 -8 0 -9 13 -5 37 3 21
9 56 12 78 l5 40 -16 -28 c-23 -40 -27 -29 -10 28 8 26 15 57 15 69 0 20 0 20
-15 0 -15 -17 -15 -13 -11 56 3 41 8 93 11 115 5 34 1 29 -22 -30 -21 -54 -29
-64 -31 -45 -3 29 16 104 46 178 12 28 20 52 18 52 -3 0 -18 -24 -35 -52 -20
-35 -31 -46 -31 -33 0 19 7 34 54 117 l19 33 -22 -19 c-28 -26 -27 -7 4 35 13
19 32 48 41 64 l17 30 -27 -24 c-31 -29 -34 -18 -5 24 24 36 71 125 65 125 -2
0 -25 -20 -52 -45 -27 -26 -68 -64 -92 -85 -23 -22 -42 -45 -42 -52 0 -7 18 5
40 27 22 21 42 37 44 34 3 -2 -8 -24 -25 -48 -16 -24 -29 -52 -29 -61 0 -9
-11 -38 -24 -63 -23 -46 -21 -62 4 -32 21 26 22 10 1 -26 -11 -19 -22 -52 -25
-74 -5 -38 -5 -38 6 -12 7 15 14 27 17 27 3 0 7 -35 8 -77 1 -43 5 -104 8
-137 8 -70 -10 -70 -21 0 -3 25 -15 71 -24 102 l-18 57 -1 -83 c-1 -96 -15
-102 -25 -10 -8 78 -19 90 -36 38 -7 -22 -18 -40 -23 -40 -16 0 1 72 32 141
19 42 31 88 35 134 4 46 2 65 -4 55 -5 -8 -10 -24 -10 -35 0 -11 -5 -27 -11
-35 -7 -11 -8 -4 -4 25 l6 40 -24 -50 c-25 -49 -37 -42 -17 11 15 39 6 40 -19
2 -11 -18 -21 -27 -21 -20 0 19 19 52 51 90 43 48 35 69 -7 22 -46 -51 -57
-45 -14 8 31 39 61 116 59 156 0 15 -6 9 -18 -19 -10 -22 -31 -51 -46 -65 -15
-14 -32 -34 -38 -45 -9 -18 -9 -19 7 -6 25 21 32 4 9 -22 -35 -37 -63 -100
-62 -137 l0 -35 16 38 c8 20 19 37 24 37 13 0 12 -5 -22 -71 -38 -77 -34 -94
11 -35 35 48 64 64 36 21 -52 -79 -66 -118 -65 -179 l1 -61 15 55 c7 30 22 65
31 77 17 22 17 21 17 -40 0 -62 30 -161 46 -152 4 3 10 19 14 35 4 17 11 30
17 30 7 0 8 -18 2 -57 -11 -80 -11 -160 1 -172 7 -7 9 7 6 41 -2 35 0 48 8 44
6 -4 11 -17 11 -29 0 -26 35 -87 50 -87 6 0 4 12 -5 30 -17 33 -21 80 -5 64 6
-6 19 -34 29 -64 l19 -53 17 32 c21 41 28 36 15 -10 -13 -45 -13 -95 2 -144 8
-28 13 -34 15 -20 12 67 16 71 24 28 9 -47 46 -139 54 -131 2 2 0 21 -6 42 -8
27 -7 42 0 49 8 8 11 3 11 -19 0 -16 9 -49 20 -73 22 -47 38 -52 20 -7 -13 35
-13 66 0 66 6 0 10 -8 10 -17 0 -10 12 -43 27 -73 l27 -55 6 48 5 49 24 -69
25 -68 9 35 10 35 7 -30 c4 -16 17 -48 28 -70 11 -22 23 -57 27 -77 5 -29 12
-37 33 -41 51 -11 69 50 33 109 -13 21 -19 51 -20 92 0 53 3 64 28 91 l28 30
26 -27 c26 -25 27 -25 47 -7 23 21 27 73 9 123 -18 51 -30 26 -23 -47 5 -46 3
-70 -5 -75 -7 -5 -11 1 -11 14 0 12 -9 33 -20 47 -11 14 -20 33 -20 42 0 12 5
9 20 -9 l19 -25 -1 42 c0 22 3 47 7 55 4 7 -9 -4 -29 -24 -20 -21 -36 -47 -36
-59 0 -22 0 -22 -21 -3 -22 19 -22 19 -16 -6 3 -14 8 -36 12 -50 6 -24 6 -25
-10 -5 -9 11 -19 34 -22 50 l-7 30 -12 -30 c-14 -34 -13 -37 -44 85 -25 95
-35 114 -62 107 -11 -3 -19 1 -19 9 -1 8 -2 19 -3 26 -1 6 14 12 32 12 28 1
34 -3 42 -30 12 -36 43 -68 60 -62 7 2 4 13 -9 30 -12 14 -21 37 -21 50 -1 12
-7 41 -15 63 l-14 40 25 -28 c15 -18 24 -40 24 -61 0 -19 9 -44 20 -57 18 -23
19 -23 20 -4 0 12 -7 47 -15 79 -9 33 -14 60 -12 62 2 2 32 -9 67 -23 57 -24
79 -27 170 -27 83 0 118 5 165 22 68 25 82 27 67 9 -14 -17 -31 -126 -21 -133
12 -7 29 30 29 63 0 30 37 99 47 89 4 -4 1 -12 -5 -18 -7 -7 -12 -28 -12 -49
0 -22 -10 -50 -25 -73 -17 -26 -20 -36 -10 -36 17 0 53 45 61 77 5 20 11 23
31 18 14 -3 30 -1 37 4 10 8 12 5 10 -12 -1 -12 -3 -25 -3 -29 -1 -5 -9 -8
-19 -8 -10 0 -34 -19 -53 -42 -31 -40 -34 -48 -32 -105 2 -34 -2 -65 -7 -68
-6 -3 -10 1 -10 9 0 24 -27 8 -40 -24 -7 -16 -18 -34 -25 -40 -11 -9 -13 -1
-8 47 3 32 10 66 15 75 7 14 5 16 -8 11 -20 -8 -34 -44 -34 -92 0 -40 14 -61
42 -61 25 0 24 -40 -2 -82 -11 -19 -20 -51 -20 -74 0 -28 -6 -47 -20 -59 -11
-10 -20 -13 -20 -7 0 6 5 14 10 17 6 3 10 25 10 49 0 23 7 51 15 62 18 24 19
35 2 28 -35 -13 -62 -119 -42 -166 8 -19 -9 -25 -20 -8 -7 11 -65 -91 -65
-115 0 -8 -5 -15 -11 -15 -15 0 -4 58 15 79 32 36 40 91 9 60 -15 -15 -29 -5
-36 23 -11 45 -35 103 -44 103 -17 0 -14 -45 6 -83 14 -28 20 -57 19 -97 -1
-49 -6 -61 -34 -92 -40 -43 -74 -40 -74 8 0 37 -14 65 -40 79 -17 9 -19 8 -13
-7 3 -10 15 -29 25 -42 29 -38 20 -49 -12 -13 -17 18 -30 40 -30 50 -1 16 -1
16 -11 -1 -6 -9 -7 -27 -4 -40 4 -12 -9 1 -29 28 -20 28 -43 73 -51 100 -21
69 -35 89 -35 50 l-1 -30 -19 37 c-24 45 -44 61 -30 23 13 -35 13 -106 0 -85
-5 8 -10 24 -10 35 0 11 -11 43 -24 70 -23 47 -24 48 -25 20 -1 -29 -2 -29
-31 20 l-30 50 -1 -35 -1 -35 -9 34 c-8 25 -56 111 -63 111 0 0 1 -29 2 -65 2
-39 8 -63 13 -59 11 6 49 -23 49 -37 0 -4 11 -19 25 -33 25 -25 34 -66 15 -66
-5 0 -10 8 -10 18 0 26 -28 62 -49 62 -29 0 -39 20 -57 106 -9 43 -29 102 -45
130 -16 28 -29 58 -29 67 0 9 -4 17 -10 17 -14 0 -12 -19 6 -73 8 -25 14 -56
12 -69 -6 -39 -58 106 -58 162 0 27 -4 52 -10 55 -6 4 -10 -13 -11 -42 0 -48
-17 -110 -18 -70 -1 10 -8 50 -17 89 l-16 70 -19 -41 c-10 -22 -19 -41 -21
-41 -2 0 -3 42 -4 93 -1 110 -31 237 -47 196 -4 -13 -7 -61 -5 -106 3 -93 -9
-95 -28 -6 -7 33 -13 46 -13 31 -1 -15 -6 -30 -12 -34 -9 -5 -10 18 -4 87 7
100 3 109 -19 38 l-14 -44 -1 46 c-1 26 6 60 14 75 8 16 15 47 14 69 0 22 -3
33 -6 25 -9 -26 -45 -81 -49 -77 -3 2 0 16 6 31 5 14 12 59 15 99 l5 72 -21
-25 -20 -25 6 25 c4 14 20 47 36 73 37 61 37 68 -1 32 -16 -16 -30 -25 -30
-19 0 15 36 64 69 94 17 16 31 36 31 46 0 14 -3 13 -18 -4 -21 -25 -72 -57
-72 -46 0 4 15 24 33 43 24 26 27 32 12 27 -11 -3 3 14 30 39 58 53 82 76 112
110 34 39 2 30 -37 -10 -43 -44 -64 -46 -24 -3 16 18 20 25 8 15 -40 -33 -36
-17 8 36 25 28 53 65 64 82 l19 30 -37 -29 c-60 -45 -45 -8 34 83 40 46 44 68
6 35 -23 -20 -17 -3 10 29 8 9 11 17 6 17 -4 0 -18 -12 -31 -27 l-22 -28 -1
35 -2 35 -12 -40 -12 -40 -9 35 -8 35 -7 -40 c-7 -39 -7 -39 -9 -7 0 18 -8 47
-17 64 -25 48 -11 134 29 176 17 17 36 32 41 32 6 0 4 -5 -4 -10 -13 -8 -13
-10 0 -10 8 0 1 -11 -18 -27 -22 -18 -36 -42 -42 -68 -11 -51 -5 -57 13 -12
16 36 51 67 77 67 12 -1 12 -3 -2 -11 -10 -5 -18 -15 -18 -21 0 -6 11 -3 25 6
34 22 38 20 19 -9 -9 -14 -12 -25 -8 -25 5 0 15 9 22 20 7 11 19 20 28 20 14
0 15 -2 3 -17 -13 -16 -12 -17 4 -4 9 8 21 11 25 7 4 -4 -2 -12 -13 -18 -27
-16 -65 -59 -65 -75 0 -7 14 1 30 19 l30 33 -6 -30 -7 -30 32 34 c34 36 32 36
126 -2 33 -13 69 -28 80 -32 20 -7 20 -7 0 -16 -17 -8 -17 -9 5 -5 14 3 31 2
38 -3 9 -5 1 -10 -23 -14 -39 -6 -125 -52 -125 -67 0 -5 19 2 43 15 54 30 99
39 145 29 36 -7 35 -8 -24 -14 -34 -4 -72 -15 -85 -25 -19 -14 -20 -16 -4 -10
35 13 105 22 105 13 0 -4 -12 -8 -27 -9 -16 0 -37 -4 -48 -9 -18 -8 -18 -9 5
-10 21 -1 17 -4 -20 -20 -25 -10 -37 -19 -27 -19 10 -1 15 -5 12 -11 -4 -7 3
-7 20 0 15 6 38 10 53 10 27 -1 27 -1 -5 -15 -46 -20 -41 -27 7 -10 58 20 49
8 -13 -20 -51 -22 -115 -81 -102 -93 3 -3 12 4 21 16 18 26 64 51 159 87 81
30 89 31 50 5 -39 -26 -25 -26 26 1 23 11 43 18 46 15 10 -10 -62 -45 -104
-52 -29 -4 -52 -16 -73 -37 -35 -36 -41 -61 -7 -29 19 18 85 52 101 52 3 0
-14 -18 -37 -41 -44 -43 -35 -43 22 0 l34 25 -32 -45 c-31 -44 -57 -119 -41
-119 12 0 27 23 34 54 4 15 27 49 51 75 38 39 45 43 45 25 0 -34 36 -71 88
-90 26 -10 66 -30 89 -46 50 -33 62 -34 96 -8 14 11 54 33 90 49 66 30 97 60
97 95 0 33 68 -40 96 -101 13 -29 28 -53 34 -53 22 0 -2 72 -42 123 -35 45
-32 46 17 7 56 -44 64 -36 10 10 -25 22 -42 40 -36 40 22 0 68 -23 94 -48 15
-14 27 -21 27 -15 0 27 -56 70 -100 77 -42 7 -116 43 -106 53 2 2 18 -3 35
-11 39 -20 52 -20 26 1 -22 18 -22 18 89 -23 51 -19 94 -42 118 -65 44 -41 50
-35 11 11 -14 17 -50 42 -80 56 -45 19 -52 26 -41 37 9 10 22 12 52 5 22 -5
44 -12 49 -15 6 -3 7 -1 3 5 -5 8 1 12 16 13 15 0 7 7 -27 19 -39 14 -44 19
-25 20 23 1 23 2 5 10 -11 5 -32 9 -47 9 -16 1 -28 5 -28 9 0 9 73 0 103 -13
9 -4 17 -4 17 -1 0 14 -70 36 -112 36 -36 1 -40 2 -24 11 26 16 101 3 153 -25
23 -14 43 -20 43 -15 0 17 -79 61 -122 67 l-43 7 40 5 40 6 -30 9 c-25 7 -43
1 -115 -37 -130 -70 -180 -73 -246 -16 -33 29 -50 64 -19 38 8 -7 15 -9 15 -4
0 5 5 1 11 -10 9 -15 13 -16 20 -5 7 11 9 10 9 -3 0 -21 16 -24 23 -5 3 6 6 1
7 -13 1 -14 4 -19 7 -12 2 6 10 9 15 6 6 -4 17 1 25 11 12 17 13 17 13 2 0
-22 32 -17 61 9 14 12 19 13 14 4 -4 -8 4 -4 19 10 15 14 31 24 34 24 4 -1 17
2 30 7 13 5 38 9 55 10 26 0 28 2 12 8 -11 5 -32 5 -47 0 -34 -9 -37 -2 -5 11
17 7 18 9 4 9 -10 1 -31 -6 -47 -14 -27 -14 -29 -14 -23 2 3 10 -8 2 -26 -17
l-31 -35 6 30 5 30 -19 -22 c-24 -28 -32 -29 -32 -5 0 12 28 30 91 60 50 24
94 41 97 38 3 -3 -1 -6 -9 -6 -8 -1 10 -9 39 -19 29 -10 64 -29 77 -41 34 -32
32 -10 -2 25 -20 20 -23 26 -10 22 34 -13 5 15 -35 33 l-39 17 27 17 c21 15
31 16 54 6 15 -6 33 -22 40 -35 7 -13 34 -35 61 -50 27 -14 56 -36 65 -48 16
-22 16 -22 10 8 l-6 30 30 -32 c37 -40 45 -42 26 -5 -8 16 -33 41 -55 57 -23
15 -41 32 -41 36 0 15 13 10 44 -18 l30 -28 -22 29 c-32 42 -18 45 25 5 34
-31 35 -32 20 -6 -19 30 -11 35 19 12 29 -22 43 -17 15 5 -14 12 -18 20 -9 20
23 0 57 -30 78 -68 l20 -37 -6 40 c-4 28 -16 49 -40 71 -23 21 -31 34 -22 37
7 3 -6 8 -30 12 -23 4 -45 12 -48 16 -8 14 -40 11 -102 -11 -36 -12 -50 -14
-39 -6 16 12 14 14 -25 18 -30 4 -49 0 -61 -11 -17 -14 -19 -14 -28 2 -6 9
-16 17 -23 17 -7 0 23 37 68 83 55 55 93 104 117 150 19 37 35 60 37 52 2 -8
-13 -46 -34 -83z m-1470 19 c-9 -44 14 -100 63 -152 42 -45 44 -49 30 -69 -8
-12 -18 -17 -21 -11 -4 5 -2 13 4 16 7 4 -4 23 -26 47 -55 61 -77 131 -58 182
10 26 14 18 8 -13z m1267 -240 c-18 -12 -3 -34 18 -26 14 5 14 4 -1 -11 -16
-16 -18 -16 -37 7 -22 28 -19 39 12 39 16 0 19 -3 8 -9z m294 -31 c4 -6 -6
-10 -23 -10 -16 0 -41 -9 -56 -21 -21 -17 -29 -19 -41 -9 -24 20 -18 28 28 38
58 13 85 14 92 2z m-1379 -31 c154 -105 407 -163 615 -140 134 15 239 45 352
99 110 54 133 53 30 -1 -297 -154 -658 -156 -943 -6 -56 30 -122 78 -107 79 5
0 29 -14 53 -31z m367 -176 c15 -13 18 -14 12 -3 -4 8 4 4 18 -9 16 -15 27
-19 27 -12 0 11 3 11 15 1 12 -10 15 -9 15 6 0 16 3 16 20 -6 18 -23 20 -23
20 -5 1 20 1 20 10 0 8 -19 9 -18 9 4 1 20 3 21 16 11 10 -9 15 -9 15 -1 0 6
3 10 8 9 4 0 15 2 25 7 30 13 30 -1 1 -29 -50 -46 -117 -46 -203 -1 -73 38
-80 45 -52 45 14 0 33 -8 44 -17z m342 -12 c9 -19 11 -32 5 -36 -6 -3 -15 6
-20 20 -19 51 -9 62 15 16z m-65 6 c0 -7 -6 -21 -13 -32 -19 -26 -30 -3 -11
23 17 25 24 28 24 9z m-261 -76 c11 -7 10 -11 -7 -20 -38 -21 -103 -7 -88 18
8 13 75 14 95 2z m281 -4 c25 0 65 3 90 7 l45 7 -55 -20 c-30 -11 -66 -20 -80
-20 -14 0 -50 9 -80 20 l-55 20 45 -7 c25 -4 65 -7 90 -7z m376 2 c15 -25 -50
-39 -88 -18 -17 9 -18 13 -7 20 20 12 87 11 95 -2z m-417 -45 c39 -13 48 -13
89 1 96 32 162 9 162 -58 l-1 -32 -14 32 c-10 25 -22 33 -50 39 -66 12 -137
-42 -119 -91 10 -25 21 -17 17 13 -3 23 -2 24 6 7 14 -33 38 -48 66 -41 32 8
32 22 -1 30 -34 9 -28 40 8 44 17 2 34 -4 48 -18 23 -23 22 -45 -1 -45 -8 0
-22 -8 -31 -17 -10 -10 -31 -18 -48 -18 -32 0 -80 19 -80 31 0 5 -15 0 -32
-11 -41 -25 -66 -25 -115 -2 -47 21 -54 31 -42 54 10 18 70 35 88 23 17 -10
-6 -45 -29 -45 -26 0 -26 -17 0 -25 31 -10 58 3 69 33 11 27 11 26 7 -7 -3
-31 -2 -32 11 -16 16 23 16 30 3 56 -12 22 -61 49 -89 49 -34 0 -70 -22 -80
-49 l-9 -26 -1 29 c-2 69 70 94 168 60z m66 -188 c26 -14 26 -15 7 -25 -29
-16 -47 -14 -73 8 -23 19 -23 20 -3 15 12 -3 25 -1 28 5 9 14 8 14 41 -3z
m254 -395 c22 -20 22 -20 2 -31 -11 -6 -26 -22 -34 -35 -12 -25 -12 -25 -25
-4 -8 12 -9 18 -3 14 6 -3 11 1 11 9 0 8 8 17 18 19 13 4 12 5 -5 6 -12 0 -25
-4 -29 -10 -10 -16 -26 15 -18 35 8 22 56 20 83 -3z m46 -41 c5 -9 -46 -63
-53 -56 -7 8 12 35 31 44 12 6 16 11 9 11 -7 1 -24 -11 -37 -25 -14 -15 -25
-22 -25 -15 0 16 37 51 54 51 8 0 18 -4 21 -10z m35 -25 c0 -8 -64 -64 -72
-65 -16 0 -7 22 17 45 21 22 55 34 55 20z m105 -186 c-4 -26 -2 -29 10 -19 8
7 13 16 10 20 -3 5 0 12 6 16 8 4 9 3 5 -4 -5 -8 1 -12 15 -12 12 0 20 -3 17
-6 -4 -3 -10 -6 -15 -6 -12 1 -43 -30 -43 -42 0 -6 9 -1 18 12 17 22 19 23 33
6 12 -15 12 -17 -1 -12 -8 3 -23 -4 -32 -15 -10 -11 -18 -15 -18 -8 0 7 -3 10
-7 8 -5 -3 -14 1 -21 9 -10 11 -10 14 0 14 7 0 14 11 14 25 2 21 -1 24 -12 14
-17 -14 -19 2 -2 19 20 20 27 14 23 -19z m-831 -22 c14 -21 26 -42 26 -48 0
-6 5 -7 10 -4 15 9 11 -46 -5 -75 l-14 -25 -1 37 c0 20 -11 58 -25 84 -14 26
-25 54 -25 62 0 18 2 17 34 -31z m-307 -29 c22 -21 23 -21 43 -3 20 18 20 18
20 -17 0 -20 3 -50 6 -67 8 -39 -10 -41 -38 -5 -12 14 -31 30 -44 34 -19 8
-24 17 -24 45 0 41 5 43 37 13z m1385 0 c6 -36 -2 -58 -22 -58 -10 0 -30 -15
-44 -32 -32 -42 -43 -29 -38 44 4 57 4 57 26 43 21 -14 24 -13 41 5 23 26 32
25 37 -2z m-1225 -234 c30 -30 37 -45 41 -88 l5 -51 -23 20 c-37 33 -80 102
-80 129 0 35 14 33 57 -10z m1083 5 c0 -23 -12 -46 -46 -85 -25 -30 -49 -52
-54 -49 -16 10 12 94 43 129 40 45 57 46 57 5z m-260 -8 c0 -17 -22 -71 -30
-71 -4 0 -2 18 3 40 10 35 27 55 27 31z m234 -329 c-6 -9 -21 -18 -32 -20 -25
-4 -52 -38 -52 -64 0 -10 -4 -18 -10 -18 -30 0 17 89 67 128 23 17 42 -2 27
-26z m-748 -94 c33 -101 -7 -46 -64 87 -3 6 7 -1 21 -14 15 -13 34 -46 43 -73z
m439 12 c-20 -40 -38 -70 -41 -68 -9 10 26 102 47 124 12 13 24 22 26 20 3 -2
-12 -36 -32 -76z m-535 -34 c0 -2 3 -11 6 -20 5 -12 0 -16 -20 -16 -24 0 -35
18 -19 33 7 8 33 10 33 3z m643 -10 c7 -19 -1 -26 -30 -26 -25 0 -29 10 -11
28 16 16 35 15 41 -2z m-182 -64 c-11 -70 -40 -102 -90 -98 -20 2 -36 6 -36 8
0 3 17 26 37 52 l37 48 3 -34 c4 -46 22 -37 28 14 5 41 18 73 26 66 2 -2 0
-28 -5 -56z"/>
<path d="M1336 3531 c-9 -9 -13 -21 -10 -24 4 -4 1 -13 -5 -21 -8 -10 -9 -16
-1 -21 6 -3 7 -11 4 -17 -4 -7 -2 -8 5 -4 6 4 9 11 6 16 -3 5 2 16 11 24 10
11 11 16 3 16 -8 0 -6 7 5 19 10 10 13 22 8 25 -5 3 -17 -3 -26 -13z"/>
<path d="M1482 3499 c-7 -11 -32 -29 -55 -39 -78 -35 -94 -59 -54 -77 33 -15
71 -30 77 -30 3 0 16 -5 30 -13 17 -8 22 -9 14 -1 -6 7 -18 14 -25 15 -20 4
-79 40 -79 49 0 4 23 23 50 43 28 20 50 40 50 46 0 5 4 7 8 4 5 -3 9 1 9 9 0
21 -10 19 -25 -6z"/>
<path d="M1165 3449 c4 -5 11 -9 16 -9 25 0 109 -44 109 -57 0 -8 -25 -41 -57
-74 -31 -32 -51 -59 -45 -59 6 0 14 5 17 10 3 6 16 10 28 10 18 0 19 2 7 10
-12 7 -7 12 20 24 19 8 28 15 21 16 -10 0 -3 12 17 33 32 33 41 56 22 58 -13
2 -21 4 -45 13 -18 7 -27 10 -47 15 -4 1 -21 6 -38 11 -19 5 -28 5 -25 -1z"/>
<path d="M1780 3329 c-14 -11 -56 -36 -95 -55 -56 -28 -63 -33 -35 -29 46 8
61 12 82 20 13 5 18 1 22 -17 5 -24 7 -38 27 -276 12 -139 13 -142 31 -125 11
10 15 19 9 21 -5 2 -8 9 -6 15 2 7 6 34 9 60 4 41 2 48 -12 42 -12 -5 -12 -1
4 16 19 22 19 22 0 15 -20 -7 -20 -7 0 15 19 22 19 22 -1 15 -16 -6 -18 -5 -7
5 6 7 12 17 12 22 0 4 -6 5 -12 1 -10 -6 -10 -4 0 7 6 7 12 17 12 22 0 4 -6 5
-12 1 -9 -5 -9 -2 1 9 16 20 2 23 -19 5 -8 -7 -4 -1 9 15 25 27 18 38 -9 15
-8 -7 -7 -4 3 8 21 25 22 41 2 24 -13 -11 -14 -10 -9 5 4 10 3 16 -2 13 -5 -4
-9 15 -9 42 0 26 3 46 6 44 4 -2 13 4 20 13 12 15 12 16 -5 9 -19 -7 -19 -6
-1 14 25 28 15 33 -15 9z"/>
<path d="M1150 3233 c0 -5 13 -8 29 -5 15 2 44 -4 62 -13 32 -16 33 -16 18 0
-18 19 -109 34 -109 18z"/>
<path d="M1026 3002 c3 -29 9 -65 13 -79 7 -25 7 -24 23 16 9 23 13 39 8 36
-10 -6 -24 12 -39 50 -9 26 -10 24 -5 -23z"/>
<path d="M1329 3020 c30 -16 69 -41 87 -55 30 -23 33 -24 31 -6 0 11 -5 17 -9
15 -5 -3 -20 3 -36 14 -32 23 -108 62 -119 62 -4 0 16 -14 46 -30z"/>
<path d="M1290 2993 c0 -17 5 -35 11 -39 6 -3 9 -19 7 -35 -3 -15 -1 -26 4
-23 4 3 8 21 8 40 0 21 -4 33 -10 29 -5 -3 -10 1 -10 10 0 14 4 14 35 1 19 -8
50 -26 67 -39 50 -37 66 -44 45 -20 -10 12 -46 36 -80 54 -34 18 -65 37 -69
43 -4 6 -8 -3 -8 -21z"/>
<path d="M1394 2906 c38 -26 71 -44 73 -42 6 5 -98 74 -125 82 -9 4 14 -15 52
-40z"/>
<path d="M1731 2910 c-1 -8 -13 -37 -26 -65 -13 -27 -23 -51 -21 -52 2 -2 15
14 30 36 19 27 26 48 23 68 -2 15 -5 21 -6 13z"/>
<path d="M1394 2865 c38 -25 71 -45 74 -45 14 0 -27 34 -73 60 -78 45 -79 36
-1 -15z"/>
<path d="M1340 2861 c14 -11 43 -29 65 -41 22 -11 51 -28 65 -36 19 -12 18
-10 -5 10 -16 14 -57 40 -90 57 -39 20 -51 23 -35 10z"/>
<path d="M1320 2818 c0 -21 5 -38 10 -38 7 0 9 -14 5 -37 -5 -26 -3 -34 3 -24
9 12 20 9 68 -15 81 -40 87 -41 29 -3 -49 32 -54 35 -75 38 -5 0 -10 8 -10 16
0 13 5 12 38 -2 20 -10 50 -26 65 -36 16 -11 30 -17 33 -14 6 6 -95 70 -116
73 -8 2 -16 8 -18 14 -2 5 -8 8 -13 4 -5 -3 -9 2 -9 10 0 9 2 16 4 16 6 0 129
-70 144 -82 7 -6 12 -7 12 -1 0 5 -27 25 -61 44 -33 19 -67 40 -75 47 -8 7
-14 10 -14 5 0 -4 -5 -1 -10 7 -7 11 -10 5 -10 -22z"/>
<path d="M1852 2814 c-20 -14 -21 -17 -8 -42 7 -15 16 -45 20 -67 17 -101 48
-144 44 -60 -2 25 -6 45 -9 45 -6 0 -8 11 -11 60 -1 17 -5 30 -9 30 -4 0 -6
11 -4 25 1 14 2 25 1 25 -1 0 -12 -7 -24 -16z"/>
<path d="M1725 2709 c-16 -10 -34 -20 -38 -22 -14 -4 4 -57 19 -57 10 0 13 8
9 28 -5 26 -5 26 6 5 12 -23 29 -29 42 -16 4 3 -1 12 -10 18 -16 12 -16 14 0
39 20 30 13 32 -28 5z"/>
<path d="M1370 2692 c0 -5 17 -16 38 -25 l37 -17 -30 25 c-31 26 -45 31 -45
17z"/>
<path d="M923 2658 c3 -13 9 -54 12 -93 5 -50 13 -76 28 -92 11 -13 23 -23 27
-23 3 0 0 46 -8 102 -9 71 -18 106 -30 115 -25 19 -35 16 -29 -9z"/>
<path d="M1036 2555 c19 -128 23 -142 45 -148 23 -6 23 -8 4 90 -19 100 -19
99 8 107 21 7 21 7 2 15 -11 4 -32 11 -46 14 l-26 7 13 -85z"/>
<path d="M1755 2632 c-21 -7 -21 -7 -2 -69 13 -45 22 -60 33 -56 8 3 14 2 14
-1 0 -4 -37 -25 -82 -46 -85 -41 -217 -80 -272 -80 -27 -1 -29 -2 -12 -12 45
-26 214 11 307 67 68 41 73 54 48 117 -11 29 -18 60 -16 70 3 10 4 18 4 17 -1
-1 -11 -4 -22 -7z"/>
<path d="M1527 2623 c-6 -9 5 -42 51 -156 28 -70 21 -31 -12 67 -18 54 -36 94
-39 89z"/>
<path d="M1560 2624 c0 -14 58 -165 66 -173 4 -3 4 3 0 14 -4 11 -19 52 -33
90 -25 70 -33 86 -33 69z"/>
<path d="M1626 2618 c3 -5 21 -8 40 -8 28 0 34 -4 35 -22 4 -72 16 -108 35
-108 17 0 17 9 0 80 l-12 55 -51 5 c-28 3 -49 2 -47 -2z"/>
<path d="M1455 2610 c-16 -4 -52 -8 -78 -9 -60 -1 -54 -21 6 -21 46 0 61 -7
70 -30 3 -8 6 0 6 18 1 34 15 43 25 15 5 -11 10 -13 17 -6 10 10 2 44 -10 42
-3 -1 -19 -5 -36 -9z"/>
<path d="M1091 2554 c2 -44 35 -158 47 -162 19 -6 11 47 -18 118 -25 63 -30
71 -29 44z"/>
<path d="M1534 2458 c3 -13 6 -26 6 -30 0 -15 20 -8 20 7 0 8 -4 15 -10 15 -5
0 -7 7 -4 15 4 8 1 15 -6 15 -8 0 -10 -8 -6 -22z"/>
<path d="M1500 2437 c0 -10 -4 -15 -10 -12 -5 3 -26 -4 -47 -15 l-38 -21 35 6
c54 8 82 14 86 18 2 2 -3 12 -11 23 -13 18 -14 18 -15 1z"/>
<path d="M2039 2174 c25 -27 46 -51 48 -53 2 -2 3 1 3 7 0 15 -48 70 -74 84
-12 7 -3 -9 23 -38z"/>
<path d="M951 2175 c-17 -20 -31 -41 -31 -47 0 -6 1 -9 3 -7 1 2 20 23 42 47
21 23 34 42 28 42 -6 0 -25 -16 -42 -35z"/>
<path d="M903 2180 c-47 -43 -158 -222 -118 -190 10 8 26 29 37 45 10 17 18
24 18 16 0 -8 -13 -35 -29 -60 -16 -25 -32 -57 -36 -71 l-6 -25 20 25 c11 14
21 28 21 31 0 3 17 15 39 27 22 13 46 37 55 56 22 47 20 57 -5 19 -22 -35 -44
-44 -35 -15 3 9 10 36 16 59 6 23 22 56 36 73 29 34 19 41 -13 10z"/>
<path d="M2094 2168 c22 -30 61 -147 51 -156 -2 -2 -15 14 -29 35 -28 41 -35
30 -11 -17 9 -16 28 -36 44 -45 16 -8 43 -31 60 -52 31 -37 31 -37 22 -8 -4
17 -20 48 -35 69 -37 55 -32 66 10 20 l35 -39 -27 50 c-50 91 -115 175 -136
175 -5 0 2 -15 16 -32z"/>
<path d="M889 1927 c-15 -12 -36 -30 -48 -39 -11 -10 -21 -23 -21 -29 0 -8 4
-8 15 1 19 16 19 10 0 -26 -8 -16 -15 -39 -15 -52 0 -13 -5 -32 -10 -43 -6
-11 -7 -19 -1 -19 5 0 21 30 35 67 14 36 37 83 52 104 32 46 28 65 -7 36z"/>
<path d="M2090 1936 c0 -9 12 -33 26 -51 14 -19 36 -62 48 -97 11 -34 27 -63
34 -66 11 -3 12 0 4 14 -5 11 -13 38 -17 61 -4 24 -11 45 -16 49 -5 3 -9 10
-9 16 0 7 6 6 15 -2 10 -8 15 -9 15 -2 0 6 -17 23 -37 38 -21 16 -44 35 -50
43 -11 13 -13 13 -13 -3z"/>
<path d="M943 1830 c-75 -79 -82 -99 -15 -40 43 38 90 98 81 103 -2 1 -32 -27
-66 -63z"/>
<path d="M2013 1865 c8 -17 39 -50 67 -74 66 -56 50 -23 -25 49 -47 46 -55 50
-42 25z"/>
<path d="M1335 1820 c-18 -8 -17 -9 8 -9 17 -1 26 -5 22 -11 -4 -7 3 -8 22 -4
26 7 27 6 13 -11 -14 -17 -14 -18 8 -6 18 9 20 14 10 25 -7 7 -20 11 -30 8
-10 -2 -18 1 -18 7 0 13 -7 13 -35 1z"/>
<path d="M1630 1819 c0 -6 -8 -9 -18 -7 -10 3 -23 -1 -30 -8 -10 -11 -8 -16
10 -25 22 -12 22 -11 8 6 -14 17 -13 18 13 11 19 -4 26 -3 22 4 -4 6 5 10 22
11 25 0 26 1 8 9 -28 12 -35 12 -35 -1z"/>
<path d="M1181 1775 c-26 -30 -39 -55 -28 -55 1 0 20 20 40 45 45 53 34 61
-12 10z"/>
<path d="M1791 1783 c14 -16 31 -37 39 -48 14 -19 14 -19 -5 -4 -44 35 -48 31
-11 -14 21 -26 41 -45 44 -42 3 2 0 11 -7 18 -6 8 -9 21 -6 30 7 16 -49 87
-68 87 -6 0 0 -12 14 -27z"/>
<path d="M670 1762 c-39 -58 -59 -96 -59 -112 1 -13 1 -13 6 0 4 8 24 41 45
72 22 32 38 62 36 68 -1 5 -14 -7 -28 -28z"/>
<path d="M2310 1790 c0 -8 21 -46 45 -84 25 -38 45 -63 45 -54 0 8 -20 46 -45
84 -24 38 -45 62 -45 54z"/>
<path d="M1060 1758 c-7 -12 -23 -35 -37 -49 -13 -15 -26 -43 -28 -65 l-5 -39
15 34 c9 18 23 41 32 49 18 19 46 82 39 89 -2 3 -10 -6 -16 -19z"/>
<path d="M1111 1749 c-6 -18 -11 -41 -11 -52 0 -11 -6 -28 -14 -36 -15 -18
-36 -76 -36 -100 0 -9 9 -1 21 18 24 40 32 37 19 -9 -12 -41 -10 -44 19 -23
21 14 23 21 18 67 -4 28 -2 69 4 91 15 59 15 67 3 72 -7 2 -17 -10 -23 -28z"/>
<path d="M1521 1763 c-10 -11 -11 -20 -3 -36 11 -22 11 -22 12 3 1 14 4 19 7
13 8 -21 22 -15 16 7 -7 27 -15 31 -32 13z"/>
<path d="M1858 1775 c-3 -3 1 -25 9 -48 9 -24 13 -67 11 -105 -3 -57 0 -66 19
-79 21 -14 21 -14 17 29 l-5 43 20 -35 c19 -33 20 -33 21 -10 0 14 -11 47 -24
75 -13 27 -29 69 -35 93 -11 39 -20 50 -33 37z"/>
<path d="M1930 1771 c0 -16 29 -72 49 -94 8 -11 21 -31 28 -45 12 -26 13 -26
7 8 -3 19 -12 44 -20 55 -53 74 -64 87 -64 76z"/>
<path d="M1175 1720 c-21 -22 -36 -42 -33 -45 3 -3 22 15 42 40 46 56 42 58
-9 5z"/>
<path d="M1175 1680 c-21 -22 -36 -43 -32 -46 4 -4 8 -5 10 -3 1 2 17 23 35
47 18 23 31 42 30 42 -2 0 -21 -18 -43 -40z"/>
<path d="M1815 1677 c21 -26 40 -45 43 -42 4 3 -14 25 -38 48 l-43 42 38 -48z"/>
<path d="M1181 1646 c-18 -19 -31 -40 -29 -46 2 -6 18 9 36 34 40 55 38 58 -7
12z"/>
<path d="M1811 1637 c19 -26 35 -43 38 -36 2 6 -13 28 -34 48 l-37 36 33 -48z"/>
<path d="M1201 1594 c-18 -25 -30 -48 -26 -52 4 -4 12 1 19 12 6 10 21 34 33
52 33 51 11 41 -26 -12z"/>
<path d="M1783 1590 c30 -46 47 -62 47 -42 0 12 -61 92 -70 92 -5 0 6 -22 23
-50z"/>
<path d="M1223 1573 c-18 -25 -29 -51 -26 -56 3 -6 15 8 26 29 11 21 26 47 35
57 8 9 11 17 6 17 -5 0 -23 -21 -41 -47z"/>
<path d="M1753 1586 c12 -18 27 -42 33 -52 7 -11 14 -17 17 -14 7 7 -52 100
-64 100 -5 0 2 -15 14 -34z"/>
<path d="M1731 1573 c27 -46 39 -60 39 -47 0 11 -48 84 -56 84 -3 0 4 -17 17
-37z"/>
<path d="M1250 1564 c-31 -49 -19 -53 13 -4 14 22 22 40 17 40 -5 0 -18 -16
-30 -36z"/>
<path d="M1090 1480 c-14 -57 -7 -101 21 -126 18 -16 19 -16 19 4 0 11 -5 24
-11 28 -11 7 -8 76 6 122 5 16 3 22 -8 22 -10 0 -19 -17 -27 -50z"/>
<path d="M1875 1520 c-3 -5 -1 -18 5 -29 5 -11 10 -35 10 -54 0 -22 6 -37 15
-41 19 -7 20 39 3 95 -11 39 -21 48 -33 29z"/>
<path d="M1150 1481 c-15 -30 -12 -48 12 -65 27 -19 36 -13 13 10 -11 12 -15
26 -11 46 6 33 1 36 -14 9z"/>
<path d="M1571 1034 c-26 -33 -27 -55 -2 -85 l20 -24 -6 41 c-3 23 0 51 7 63
17 33 6 36 -19 5z"/>
<path d="M1605 1029 c-3 -9 -5 -34 -3 -55 l3 -39 14 27 c10 19 11 34 3 55 -8
22 -11 25 -17 12z"/>
<path d="M1706 839 c-9 -29 -14 -59 -10 -59 3 0 13 8 24 18 16 15 17 19 4 36
-10 15 -14 16 -18 5z"/>
<path d="M1573 731 c8 -22 8 -39 -3 -70 -10 -32 -11 -47 -1 -67 15 -33 19 -29
26 22 2 21 7 50 10 64 5 27 -13 71 -32 77 -9 3 -9 -3 0 -26z"/>
<path d="M1536 738 c-2 -7 -9 -28 -15 -47 -6 -19 -11 -46 -11 -60 0 -32 25
-71 46 -71 12 0 12 4 -2 25 -11 17 -14 35 -10 57 16 79 17 96 7 102 -6 4 -13
1 -15 -6z"/>
<path d="M1431 594 c-12 -15 -21 -31 -21 -35 0 -5 -8 -9 -18 -9 -46 0 -62 -71
-24 -102 13 -12 14 -7 8 40 -4 29 -3 52 2 52 13 0 23 -57 16 -88 l-6 -27 16
23 c24 31 34 28 54 -15 l17 -38 3 39 c2 28 -2 44 -17 60 -23 24 -27 60 -11
100 12 33 7 33 -19 0z"/>
</g>
</svg>
